<svg id="SvgjsSvg1001" width="288" height="288" xmlns="http://www.w3.org/2000/svg" version="1.1"
     xmlns:xlink="http://www.w3.org/1999/xlink"><defs id="SvgjsDefs1002"></defs><g id="SvgjsG1008"><svg xmlns="http://www.w3.org/2000/svg" xmlns:xlink="http://www.w3.org/1999/xlink" viewBox="0 0 28 28" width="288" height="288"><defs><linearGradient id="b" x1="906.952" x2="931.379" y1="515.915" y2="546.094" gradientTransform="translate(-810.086 -462.595) scale(.89708)" gradientUnits="userSpaceOnUse" xlink:href="#a"></linearGradient><linearGradient id="a"><stop offset="0" stop-color="#17b96f" class="stopColorffd800 svgShape"></stop><stop offset="1" stop-color="#086972" class="stopColorff6100 svgShape"></stop></linearGradient></defs><rect width="28" height="28" fill="url(#b)" rx="5.917" ry="5.917"></rect><path fill="#ffffff" d="M16.857 8h-5.714A3.147 3.147 0 0 0 8 11.143v5.715A3.146 3.146 0 0 0 11.143 20h5.715A3.146 3.146 0 0 0 20 16.857v-5.714A3.147 3.147 0 0 0 16.857 8Zm-5.714 11c-.358 0-.691-.097-.988-.253a3.986 3.986 0 0 1 3.799-2.753c1.746 0 3.286 1.16 3.811 2.797a2.113 2.113 0 0 1-.908.209h-5.714zm1.35-6.481c0-.822.669-1.491 1.491-1.491.822 0 1.491.669 1.491 1.491 0 .821-.669 1.49-1.491 1.49a1.493 1.493 0 0 1-1.491-1.49z" class="colorfff svgShape"></path></svg></g></svg>